<?xml version="1.0" encoding="UTF-8"?>
<svg version="1.1" xmlns="http://www.w3.org/2000/svg" width="242" height="251">
<path d="M0 0 C79.86 0 159.72 0 242 0 C242 82.83 242 165.66 242 251 C162.14 251 82.28 251 0 251 C0 168.17 0 85.34 0 0 Z " fill="#FDFDFD" transform="translate(0,0)"/>
<path d="M0 0 C0.99 0.495 0.99 0.495 2 1 C0.54712339 2.33927721 -0.91247259 3.67126847 -2.375 5 C-3.18710938 5.7425 -3.99921875 6.485 -4.8359375 7.25 C-7 9 -7 9 -9 9 C-9 9.66 -9 10.32 -9 11 C-10.5390625 12.55078125 -10.5390625 12.55078125 -12.625 14.3125 C-13.34945312 14.94027344 -14.07390625 15.56804687 -14.8203125 16.21484375 C-17 18 -17 18 -18.8671875 19.25390625 C-20.7704076 20.4779318 -20.7704076 20.4779318 -23 23 C-23.94734601 29.20767658 -22.65431262 35.9007496 -21.82250977 42.07104492 C-21.69731964 43.03498169 -21.57212952 43.99891846 -21.44314575 44.99206543 C-21.17233719 47.07119464 -20.89887812 49.14998002 -20.62301826 51.22844505 C-20.18485462 54.52983265 -19.75368875 57.83207069 -19.32420349 61.13459778 C-18.56490503 66.96426599 -17.79945535 72.79310699 -17.03198242 78.6217041 C-15.8063034 87.93093704 -14.58594136 97.24084973 -13.37324333 106.55178261 C-12.95080736 109.78354737 -12.52327227 113.01460876 -12.09535217 116.24565125 C-7.91143603 148.06882684 -7.91143603 148.06882684 -12.375 155.1953125 C-12.91125 155.83210937 -13.4475 156.46890625 -14 157.125 C-14.515625 157.76695312 -15.03125 158.40890625 -15.5625 159.0703125 C-23.96547221 165.7226655 -33.62239601 165.57686492 -43.84765625 165.51757812 C-45.42895143 165.52300767 -47.01024155 165.53013498 -48.59152222 165.53881836 C-52.8601881 165.55695589 -57.12846455 165.55002409 -61.39713669 165.53730202 C-65.87943262 165.52712444 -70.3616968 165.53658084 -74.84399414 165.54284668 C-82.36903831 165.5501093 -89.89392508 165.54057188 -97.41894531 165.52148438 C-106.0998283 165.49971827 -114.78033541 165.50677063 -123.4612093 165.52879 C-130.93499865 165.54698361 -138.40867531 165.54948301 -145.88247967 165.53903532 C-150.33725324 165.53282211 -154.79185054 165.53190459 -159.24661255 165.54518127 C-163.4361937 165.55679705 -167.6252936 165.54861047 -171.81482315 165.52560425 C-173.34577768 165.52034755 -174.87677321 165.52177842 -176.40771103 165.53065491 C-186.32679221 165.58283272 -194.9599302 165.07495005 -202.9375 158.625 C-208.49745169 151.54869785 -209.4307914 144.8420086 -208.48681641 136.12231445 C-208.20202412 133.86797926 -207.90636857 131.61499772 -207.6015625 129.36328125 C-207.44714691 128.16567673 -207.29273132 126.9680722 -207.13363647 125.73417664 C-206.64007017 121.9256695 -206.13252383 118.11916948 -205.625 114.3125 C-205.29079114 111.74165013 -204.95744866 109.17068746 -204.625 106.59960938 C-204.01235135 101.89556911 -203.39880571 97.19167495 -202.77197266 92.48950195 C-202.64682281 91.54766556 -202.52167297 90.60582916 -202.39273071 89.63545227 C-202.01024396 87.06874292 -201.53189582 84.53955732 -201 82 C-200.34 82 -199.68 82 -199 82 C-197.58300781 83.6171875 -197.58300781 83.6171875 -195.953125 85.875 C-195.355 86.69613281 -194.756875 87.51726562 -194.140625 88.36328125 C-193.20476562 89.66845703 -193.20476562 89.66845703 -192.25 91 C-191.02634055 92.68771674 -189.80238488 94.37521876 -188.578125 96.0625 C-187.98322266 96.88621094 -187.38832031 97.70992188 -186.77539062 98.55859375 C-184.22283514 102.06870855 -181.61790693 105.5384647 -179 109 C-174.83263135 107.74422682 -171.39622571 106.20709707 -167.7265625 103.875 C-166.7459082 103.25641113 -165.76525391 102.63782227 -164.75488281 102.00048828 C-163.72202148 101.34032715 -162.68916016 100.68016602 -161.625 100 C-160.54573242 99.3179248 -159.46646484 98.63584961 -158.35449219 97.93310547 C-155.23321091 95.96027292 -152.11641987 93.98049902 -149 92 C-146.42016414 90.36938101 -143.83673853 88.74464379 -141.25 87.125 C-140.64687988 86.74690186 -140.04375977 86.36880371 -139.42236328 85.97924805 C-132.21613026 81.48102625 -124.93611678 77.10321995 -117.66912842 72.70419312 C-108.37971223 67.07849796 -99.14490376 61.37232583 -89.94604492 55.59936523 C-81.49437776 50.29804982 -73.00323489 45.06270298 -64.50170898 39.84179688 C-58.65181544 36.24887297 -52.81015026 32.64353625 -46.98022461 29.01831055 C-37.25364728 22.97130256 -27.45945241 17.04579706 -17.61108398 11.19897461 C-11.62188592 7.629812 -5.75478724 3.936773 0 0 Z " fill="#303030" transform="translate(239,86)"/>
<path d="M0 0 C0.25394531 0.55429687 0.50789063 1.10859375 0.76953125 1.6796875 C1.11371094 2.40414062 1.45789063 3.12859375 1.8125 3.875 C2.14894531 4.59429687 2.48539063 5.31359375 2.83203125 6.0546875 C3.99467097 8.30542806 3.99467097 8.30542806 7 10 C12.9257074 10.69126939 12.9257074 10.69126939 17.9375 7.8125 C20.38856338 4.884683 20.38856338 4.884683 21 0 C44.76 0 68.52 0 93 0 C93.99 3.465 93.99 3.465 95 7 C97.48908225 9.96775192 99.03730787 10.00473751 102.9375 10.5 C106.33964931 10.36670684 107.031029 9.9768933 109.9375 7.8125 C111.97716583 5.03113751 112.7090874 3.39398034 113 0 C119.68403251 -0.40922648 124.10931573 1.11769397 129.6875 4.75 C135.38350534 10.29205925 136.74427707 16.13792438 137.6875 23.75 C137.80778564 24.62946289 137.92807129 25.50892578 138.05200195 26.41503906 C138.87885094 32.59446731 139.55488935 38.7809892 140 45 C136.87663481 46.42029008 133.75100782 47.83553689 130.625 49.25 C129.75488281 49.64574219 128.88476562 50.04148438 127.98828125 50.44921875 C122.8520939 52.77001452 117.68570638 54.95669371 112.44335938 57.02587891 C108.41093825 58.63352882 104.42511295 60.34731771 100.4375 62.0625 C99.54691895 62.44462646 98.65633789 62.82675293 97.73876953 63.22045898 C90.59887345 66.29247538 83.48542452 69.42300174 76.375 72.5625 C68.63991448 75.97235421 60.90047229 79.37057926 53.125 82.6875 C52.34044434 83.026604 51.55588867 83.36570801 50.74755859 83.71508789 C45.34971854 86 45.34971854 86 42 86 C42 86.66 42 87.32 42 88 C40.77667969 88.4846875 39.55335937 88.969375 38.29296875 89.46875 C29.37403415 93.01295156 20.47448363 96.59783704 11.625 100.3125 C10.45940552 100.79976562 10.45940552 100.79976562 9.27026367 101.296875 C5.99635972 102.67822675 2.88568663 104.06352281 -0.2265625 105.79296875 C-3.55956881 107.24353065 -4.62343937 107.28217355 -8 106 C-12.62358323 103.40575392 -16.88797837 100.2177139 -21.22509766 97.17919922 C-23.11985703 95.87263239 -23.11985703 95.87263239 -25.79296875 94.56640625 C-28.26465938 93.23213078 -29.43089312 92.33274643 -31 90 C-31.19067383 87.17016602 -31.19067383 87.17016602 -30.89453125 83.56640625 C-30.81257256 82.54195656 -30.81257256 82.54195656 -30.72895813 81.49681091 C-29.80626208 70.75995139 -28.47576449 60.05496042 -27.15356445 49.36157227 C-26.68570884 45.54789958 -26.23828954 41.73214981 -25.79101562 37.91601562 C-25.49083692 35.46599192 -25.18944725 33.01611621 -24.88671875 30.56640625 C-24.75738449 29.43811905 -24.62805023 28.30983185 -24.49479675 27.14735413 C-23.22294761 17.19677883 -20.93255319 9.74986225 -12.94921875 3.375 C-8.58366247 0.29548936 -5.3046611 -0.24672842 0 0 Z " fill="#2F2F2F" transform="translate(73,52)"/>
<path d="M0 0 C0.33 0 0.66 0 1 0 C1 54.45 1 108.9 1 165 C-9.23 165 -19.46 165 -30 165 C-28.02 164.01 -28.02 164.01 -26 163 C-20.70073216 160.09225065 -16.21669686 157.26368577 -13 152 C-11.60172485 144.76779234 -12.07346046 137.73826536 -13.06396484 130.49902344 C-13.18900894 129.513797 -13.31405304 128.52857056 -13.44288635 127.51348877 C-13.85434073 124.29388846 -14.28246387 121.07675056 -14.7109375 117.859375 C-15.00245632 115.60513274 -15.29293621 113.35075591 -15.58242798 111.09625244 C-16.34422943 105.1858925 -17.12029177 99.27749095 -17.89935303 93.36938477 C-18.68916641 87.35938433 -19.46496356 81.34757653 -20.2421875 75.3359375 C-21.3800511 66.55081534 -22.52306193 57.76639229 -23.67724609 48.98339844 C-23.85654915 47.61640808 -23.85654915 47.61640808 -24.03947449 46.22180176 C-24.99099208 37.93948434 -24.99099208 37.93948434 -26.5546875 29.76953125 C-26.99672179 27.06880954 -26.91369405 25.62085925 -26 23 C-22.33044329 18.37429119 -17.68148551 14.55624413 -13 11 C-12.34 11 -11.68 11 -11 11 C-11 10.34 -11 9.68 -11 9 C-9.40591302 7.58528397 -7.74893135 6.24075901 -6.0625 4.9375 C-4.68771484 3.86822266 -4.68771484 3.86822266 -3.28515625 2.77734375 C-2.53105469 2.19082031 -1.77695313 1.60429688 -1 1 C-0.67 0.67 -0.34 0.34 0 0 Z " fill="#FEFEFE" transform="translate(241,86)"/>
<path d="M0 0 C8.20272446 7.60092968 11.56987138 18.20926324 12.140625 29.10546875 C12.33196051 31.56130099 12.33196051 31.56130099 14.44921875 34.26953125 C18.01691427 35.00559624 18.01691427 35.00559624 21.44921875 35.26953125 C21.11921875 36.25953125 20.78921875 37.24953125 20.44921875 38.26953125 C16.50781439 38.578661 14.08752587 38.6164373 10.57421875 36.70703125 C8.44921875 34.26953125 8.44921875 34.26953125 7.44921875 27.26953125 C-16.31078125 27.26953125 -40.07078125 27.26953125 -64.55078125 27.26953125 C-64.55078125 28.91953125 -64.55078125 30.56953125 -64.55078125 32.26953125 C-65.54078125 32.26953125 -66.53078125 32.26953125 -67.55078125 32.26953125 C-67.20530756 25.12179976 -66.75015755 18.73176353 -63.55078125 12.26953125 C-63.00164062 11.08423828 -63.00164062 11.08423828 -62.44140625 9.875 C-57.87412188 1.12999375 -50.11554208 -5.42580859 -40.80078125 -8.79296875 C-25.75283988 -12.33081004 -12.20114734 -9.38148133 0 0 Z " fill="#FDFDFD" transform="translate(158.55078125,24.73046875)"/>
<path d="M0 0 C11.27819262 9.34215411 19.61788441 20.24920732 22 35 C22.13632835 36.87189317 22.21898191 38.74840539 22.25 40.625 C22.27578125 41.56601562 22.3015625 42.50703125 22.328125 43.4765625 C22 46 22 46 20.703125 47.80859375 C17.82540249 49.82167945 15.3775211 49.42219014 12 49 C8.74765704 45.83905778 8.55879456 42.8961276 8.1875 38.5 C7.01564763 29.1349465 3.60291524 20.0116074 -4 14 C-14.68028508 5.89050761 -24.72996995 3.62082082 -38 5 C-47.76991375 6.8126211 -55.86310768 11.5156137 -61.8828125 19.49609375 C-66.85680101 27.38959725 -68.25397619 35.04568258 -69.33984375 44.20703125 C-70 47 -70 47 -73 49 C-78.22097011 49.54385105 -78.22097011 49.54385105 -80.65625 47.84375 C-83.67940138 43.69570509 -82.54910284 37.84442128 -82 33 C-79.29723806 22.50038159 -75.37576735 13.19806212 -66.74609375 6.421875 C-64.91070452 4.98639461 -64.91070452 4.98639461 -63.12890625 3.05078125 C-46.11258814 -13.34108482 -18.88968184 -12.47937691 0 0 Z " fill="#262324" transform="translate(161,11)"/>
<path d="M0 0 C3.83077118 1.35886536 6.71212423 3.10246763 9.9375 5.5625 C14.97207682 9.31954437 20.15309807 12.72793263 25.49194336 16.02954102 C29.89526205 18.79052409 29.89526205 18.79052409 31 21 C31.43426831 27.04143858 30.76025104 33.01302309 30 39 C29.34 39 28.68 39 28 39 C26.66235352 37.49389648 26.66235352 37.49389648 25.12890625 35.37109375 C24.55954346 34.59008301 23.99018066 33.80907227 23.40356445 33.00439453 C22.79601318 32.15731934 22.18846191 31.31024414 21.5625 30.4375 C20.29689495 28.69399593 19.03126969 26.95050654 17.765625 25.20703125 C17.13333984 24.33127441 16.50105469 23.45551758 15.84960938 22.55322266 C14.15728624 20.21711979 12.45079 17.89265199 10.734375 15.57421875 C10.2386499 14.90398682 9.7429248 14.23375488 9.23217773 13.54321289 C8.31075033 12.29821631 7.38843874 11.05387346 6.46508789 9.81030273 C4.12558749 6.63270458 1.96694171 3.42132532 0 0 Z " fill="#363636" transform="translate(1,115)"/>
<path d="M0 0 C0.66 0.33 1.32 0.66 2 1 C0.54712339 2.33927721 -0.91247259 3.67126847 -2.375 5 C-3.18710938 5.7425 -3.99921875 6.485 -4.8359375 7.25 C-7 9 -7 9 -9 9 C-9 9.66 -9 10.32 -9 11 C-10.5390625 12.55078125 -10.5390625 12.55078125 -12.625 14.3125 C-13.35074219 14.93898438 -14.07648438 15.56546875 -14.82421875 16.2109375 C-17 18 -17 18 -18.83203125 19.2890625 C-21.14394959 20.9428435 -22.80628145 22.23532149 -23.51953125 25.05078125 C-23.72688996 27.02947541 -23.86765846 29.01487685 -24 31 C-24.66 31.33 -25.32 31.66 -26 32 C-26 31.34 -26 30.68 -26 30 C-26.66 30 -27.32 30 -28 30 C-28.185625 29.13375 -28.185625 29.13375 -28.375 28.25 C-28.92525678 25.97341328 -28.92525678 25.97341328 -30.0625 23.9375 C-31 22 -31 22 -31 19 C-29.12329102 17.5612793 -29.12329102 17.5612793 -26.50390625 16.07421875 C-25.55193359 15.52443359 -24.59996094 14.97464844 -23.61914062 14.40820312 C-22.61044922 13.84037109 -21.60175781 13.27253906 -20.5625 12.6875 C-13.54070036 8.67703468 -6.65960468 4.59272315 0 0 Z " fill="#383838" transform="translate(239,86)"/>
<path d="M0 0 C1.1446875 0.2784375 1.1446875 0.2784375 2.3125 0.5625 C5.08967375 1.22819173 5.08967375 1.22819173 8 0 C8.33 0.66 8.66 1.32 9 2 C11.01669827 3.13350534 11.01669827 3.13350534 13 4 C12.34 5.32 11.68 6.64 11 8 C12.32 8.33 13.64 8.66 15 9 C15.80967438 11.91482778 16.21845993 13.46113217 15.0625 16.3125 C14.711875 16.869375 14.36125 17.42625 14 18 C13.34 17.34 12.68 16.68 12 16 C11.34 16 10.68 16 10 16 C8.20173555 13.74185152 6.5253199 11.48722261 4.875 9.125 C4.17310547 8.14853516 4.17310547 8.14853516 3.45703125 7.15234375 C0 2.26412172 0 2.26412172 0 0 Z " fill="#323232" transform="translate(13,130)"/>
<path d="M0 0 C0.66 0.33 1.32 0.66 2 1 C0.54712339 2.33927721 -0.91247259 3.67126847 -2.375 5 C-3.18710938 5.7425 -3.99921875 6.485 -4.8359375 7.25 C-7 9 -7 9 -9 9 C-9 9.66 -9 10.32 -9 11 C-10.6796875 12.69140625 -10.6796875 12.69140625 -12.875 14.5625 C-13.59429687 15.18253906 -14.31359375 15.80257812 -15.0546875 16.44140625 C-17 18 -17 18 -19 19 C-19.66 18.67 -20.32 18.34 -21 18 C-21 17.01 -21 16.02 -21 15 C-21.66 14.67 -22.32 14.34 -23 14 C-22.16807129 13.52373169 -22.16807129 13.52373169 -21.31933594 13.0378418 C-18.79465146 11.59045106 -16.27231274 10.1390196 -13.75 8.6875 C-12.87730469 8.18798828 -12.00460938 7.68847656 -11.10546875 7.17382812 C-10.26113281 6.68720703 -9.41679687 6.20058594 -8.546875 5.69921875 C-7.77182617 5.25408936 -6.99677734 4.80895996 -6.19824219 4.3503418 C-4.02499323 3.01535291 -2.0140572 1.56269976 0 0 Z " fill="#3B3B3B" transform="translate(239,86)"/>
<path d="M0 0 C4.54805635 -0.17835515 7.8794254 0.00214565 12 2 C12 2.99 12 3.98 12 5 C10.68 5 9.36 5 8 5 C6.3553326 7.46326712 6.3553326 7.46326712 5 10 C4.34 10 3.68 10 3 10 C3 9.34 3 8.68 3 8 C2.34 8 1.68 8 1 8 C0.67 5.36 0.34 2.72 0 0 Z " fill="#373737" transform="translate(186,52)"/>
<path d="M0 0 C3.67033927 3.27708863 5.69281189 6.71522208 8 11 C6.125 12.0625 6.125 12.0625 4 13 C3.34 12.67 2.68 12.34 2 12 C1.67 12.66 1.34 13.32 1 14 C0.01 13.01 -0.98 12.02 -2 11 C-1.67 10.34 -1.34 9.68 -1 9 C-1.33 8.67 -1.66 8.34 -2 8 C-1.66015625 6.15234375 -1.66015625 6.15234375 -1.0625 3.9375 C-0.86785156 3.20402344 -0.67320313 2.47054687 -0.47265625 1.71484375 C-0.31667969 1.14894531 -0.16070312 0.58304688 0 0 Z " fill="#373737" transform="translate(51,184)"/>
<path d="M0 0 C3.08351902 2.05567935 5.42215154 4.35247996 8 7 C7.01 7 6.02 7 5 7 C5 7.99 5 8.98 5 10 C2.36 9.67 -0.28 9.34 -3 9 C-2.67 6.69 -2.34 4.38 -2 2 C-1.34 2 -0.68 2 0 2 C0 1.34 0 0.68 0 0 Z " fill="#211D1E" transform="translate(148,6)"/>
<path d="M0 0 C0.33 0 0.66 0 1 0 C1.33 3.63 1.66 7.26 2 11 C2.99 11 3.98 11 5 11 C7.33564933 11.31669821 9.6693782 11.64820803 12 12 C11 15 11 15 9 16 C3.69136464 16.45179875 3.69136464 16.45179875 1.3203125 14.90234375 C-0.6498936 12.06361484 -0.28865242 9.71796483 -0.1875 6.3125 C-0.16042969 5.13300781 -0.13335937 3.95351563 -0.10546875 2.73828125 C-0.07066406 1.83464844 -0.03585938 0.93101563 0 0 Z " fill="#3D3A3B" transform="translate(79,44)"/>
<path d="M0 0 C0.66 0 1.32 0 2 0 C3.2890625 1.75 3.2890625 1.75 4.625 4 C5.07101563 4.7425 5.51703125 5.485 5.9765625 6.25 C6.31429687 6.8275 6.65203125 7.405 7 8 C5.68 8.99 4.36 9.98 3 11 C3.33 9.68 3.66 8.36 4 7 C0.88667752 7.66868314 0.88667752 7.66868314 -0.1875 10.0625 C-0.455625 10.701875 -0.72375 11.34125 -1 12 C-1.08159574 7.83861737 -0.98248524 4.0527516 0 0 Z " fill="#414141" transform="translate(38,168)"/>
<path d="M0 0 C3.9132706 1.56530824 6.13199262 2.64528238 9.3125 5.125 C10.00988281 5.66382812 10.70726562 6.20265625 11.42578125 6.7578125 C11.94527344 7.16773437 12.46476563 7.57765625 13 8 C12.67 8.66 12.34 9.32 12 10 C11.34 10 10.68 10 10 10 C10 9.34 10 8.68 10 8 C8.68 8.33 7.36 8.66 6 9 C4.02 6.03 2.04 3.06 0 0 Z " fill="#454545" transform="translate(1,115)"/>
<path d="M0 0 C0.33 0 0.66 0 1 0 C1.19622241 4.21878192 0.80230168 7.17010894 -1 11 C-1.66 11 -2.32 11 -3 11 C-2.95875 12.093125 -2.9175 13.18625 -2.875 14.3125 C-3 18 -3 18 -5 21 C-4.73510924 13.172478 -3.75854433 6.92271421 0 0 Z " fill="#4D4D4D" transform="translate(54,61)"/>
<path d="M0 0 C0.66 0 1.32 0 2 0 C2 0.66 2 1.32 2 2 C2.8971875 1.6596875 2.8971875 1.6596875 3.8125 1.3125 C4.8953125 1.1578125 4.8953125 1.1578125 6 1 C7.75 2.4375 7.75 2.4375 9 4 C8.01 4.99 7.02 5.98 6 7 C1.32307692 5.52307692 1.32307692 5.52307692 -0.3125 2.875 C-0.539375 2.25625 -0.76625 1.6375 -1 1 C-0.67 0.67 -0.34 0.34 0 0 Z " fill="#333333" transform="translate(9,123)"/>
<path d="M0 0 C0.99 0 1.98 0 3 0 C3 0.99 3 1.98 3 3 C3.66 3.33 4.32 3.66 5 4 C4.21625 4.7425 3.4325 5.485 2.625 6.25 C0.38733567 8.59421977 -0.69370826 10.14324985 -2 13 C-2.05447047 11.58376784 -2.09300508 10.16691809 -2.125 8.75 C-2.14820313 7.96109375 -2.17140625 7.1721875 -2.1953125 6.359375 C-1.9828378 3.79268059 -1.28654105 2.2083933 0 0 Z " fill="#2F2F2F" transform="translate(215,101)"/>
<path d="M0 0 C-1 3 -1 3 -3.25 4.25 C-6.33154482 5.09042132 -7.98278913 4.97855488 -11 4 C-11.66 3.34 -12.32 2.68 -13 2 C-2.98630137 -1.49315068 -2.98630137 -1.49315068 0 0 Z " fill="#373737" transform="translate(76,154)"/>
<path d="M0 0 C2.15377564 2.62198774 3.40072174 4.64404172 4 8 C3.34 8 2.68 8 2 8 C1.67 8.99 1.34 9.98 1 11 C-0.32 9.68 -1.64 8.36 -3 7 C-2.01 4.69 -1.02 2.38 0 0 Z M0 4 C1 6 1 6 1 6 Z " fill="#2F2B2D" transform="translate(86,27)"/>
<path d="M0 0 C0.33 0.66 0.66 1.32 1 2 C2.32 1.67 3.64 1.34 5 1 C5 2.32 5 3.64 5 5 C4.34 5 3.68 5 3 5 C3.33 6.32 3.66 7.64 4 9 C2.68 9.33 1.36 9.66 0 10 C0.33 9.34 0.66 8.68 1 8 C0.34 7.67 -0.32 7.34 -1 7 C-0.67 4.69 -0.34 2.38 0 0 Z " fill="#1E1A1B" transform="translate(107,8)"/>
<path d="M0 0 C3.01217112 0.64449607 5.51655836 1.65022182 8.25 3.0625 C8.95640625 3.42472656 9.6628125 3.78695313 10.390625 4.16015625 C10.92171875 4.43730469 11.4528125 4.71445313 12 5 C11.34 5.66 10.68 6.32 10 7 C6.2776795 6.89939674 5.00818179 6.0072727 2.1875 3.5 C0 1 0 1 0 0 Z " fill="#302E2F" transform="translate(149,6)"/>
<path d="M0 0 C0.33 0.66 0.66 1.32 1 2 C0.01 2.99 -0.98 3.98 -2 5 C-1.67 5.66 -1.34 6.32 -1 7 C-3.64 7.33 -6.28 7.66 -9 8 C-7.50164772 3.33845958 -4.11536409 2.13389249 0 0 Z " fill="#3C3C3C" transform="translate(124,157)"/>
<path d="M0 0 C4.455 0.99 4.455 0.99 9 2 C8.67 3.32 8.34 4.64 8 6 C5.03 5.01 2.06 4.02 -1 3 C-0.67 2.01 -0.34 1.02 0 0 Z " fill="#2E2C2D" transform="translate(144,14)"/>
<path d="M0 0 C0.66 0.33 1.32 0.66 2 1 C-0.97 3.64 -3.94 6.28 -7 9 C-7.66 8.01 -8.32 7.02 -9 6 C-6.03 4.02 -3.06 2.04 0 0 Z " fill="#616161" transform="translate(239,86)"/>
<path d="M0 0 C0.66 0.99 1.32 1.98 2 3 C1.125 5.6875 1.125 5.6875 0 8 C-1.32 6.35 -2.64 4.7 -4 3 C-2.68 2.01 -1.36 1.02 0 0 Z " fill="#373737" transform="translate(165,54)"/>
<path d="M0 0 C-0.375 1.9375 -0.375 1.9375 -1 4 C-1.99 4.495 -1.99 4.495 -3 5 C-3.66 4.67 -4.32 4.34 -5 4 C-5 3.01 -5 2.02 -5 1 C-5.66 0.67 -6.32 0.34 -7 0 C-4.3333581 -1.33332095 -2.83319697 -0.67102033 0 0 Z " fill="#494949" transform="translate(223,100)"/>
<path d="M0 0 C1.7074998 1.28062485 3.37373596 2.61767557 5 4 C5 4.66 5 5.32 5 6 C4.34 6 3.68 6 3 6 C2.67 6.66 2.34 7.32 2 8 C1.01 8.495 1.01 8.495 0 9 C0 6.03 0 3.06 0 0 Z " fill="#373435" transform="translate(170,47)"/>
<path d="M0 0 C2.64 0 5.28 0 8 0 C5 2 5 2 2 2 C2 2.66 2 3.32 2 4 C0.68 4.33 -0.64 4.66 -2 5 C-2.33 4.01 -2.66 3.02 -3 2 C-2.01 2 -1.02 2 0 2 C0 1.34 0 0.68 0 0 Z " fill="#444444" transform="translate(113,136)"/>
<path d="M0 0 C-1.98 0.99 -3.96 1.98 -6 3 C-6 3.66 -6 4.32 -6 5 C-6.99 4.67 -7.98 4.34 -9 4 C-8.67 2.68 -8.34 1.36 -8 0 C-4.94736336 -0.98120464 -3.05263664 -0.98120464 0 0 Z " fill="#363636" transform="translate(191,104)"/>
<path d="M0 0 C0.99 0.33 1.98 0.66 3 1 C3 1.33 3 1.66 3 2 C3.66 2.33 4.32 2.66 5 3 C4.34 4.32 3.68 5.64 3 7 C2.01 6.67 1.02 6.34 0 6 C-0.75 4.0625 -0.75 4.0625 -1 2 C-0.67 1.34 -0.34 0.68 0 0 Z " fill="#2E2B2C" transform="translate(106,15)"/>
<path d="M0 0 C0.33 0 0.66 0 1 0 C1.33 4.62 1.66 9.24 2 14 C-1 11 -1 11 -1.07421875 8.30078125 C-0.94660156 7.31464844 -0.81898438 6.32851562 -0.6875 5.3125 C-0.56761719 4.31863281 -0.44773438 3.32476562 -0.32421875 2.30078125 C-0.21722656 1.54152344 -0.11023438 0.78226563 0 0 Z " fill="#595959" transform="translate(221,164)"/>
<path d="M0 0 C0.33 0 0.66 0 1 0 C1 2.64 1 5.28 1 8 C0.34 8 -0.32 8 -1 8 C-2.625 5.5 -2.625 5.5 -4 3 C-2.68 3 -1.36 3 0 3 C0 2.01 0 1.02 0 0 Z " fill="#464646" transform="translate(30,146)"/>
<path d="M0 0 C0.99 0.33 1.98 0.66 3 1 C4.1875 4.0625 4.1875 4.0625 5 7 C3.0625 6.3125 3.0625 6.3125 1 5 C0.25 2.375 0.25 2.375 0 0 Z " fill="#383838" transform="translate(204,61)"/>
<path d="M0 0 C2.64 0 5.28 0 8 0 C8.33 0.66 8.66 1.32 9 2 C4.545 2.495 4.545 2.495 0 3 C0 2.01 0 1.02 0 0 Z " fill="#383737" transform="translate(80,63)"/>
<path d="M0 0 C0 1.32 0 2.64 0 4 C-2.375 4.625 -2.375 4.625 -5 5 C-5.66 4.34 -6.32 3.68 -7 3 C-2.25 0 -2.25 0 0 0 Z " fill="#414141" transform="translate(69,192)"/>
<path d="M0 0 C0.33 0 0.66 0 1 0 C1.25 6.625 1.25 6.625 -1 10 C-1.66 9.67 -2.32 9.34 -3 9 C-2.67 7.68 -2.34 6.36 -2 5 C-1.34 5 -0.68 5 0 5 C0 3.35 0 1.7 0 0 Z " fill="#414141" transform="translate(223,180)"/>
<path d="M0 0 C1.32 0.66 2.64 1.32 4 2 C3.67 2.99 3.34 3.98 3 5 C1.02 4.01 -0.96 3.02 -3 2 C-2.01 1.34 -1.02 0.68 0 0 Z " fill="#3B3B3B" transform="translate(60,151)"/>
<path d="M0 0 C0.66 0.33 1.32 0.66 2 1 C0.6875 3.5 0.6875 3.5 -1 6 C-1.99 6 -2.98 6 -4 6 C-2.25 1.125 -2.25 1.125 0 0 Z " fill="#3A3637" transform="translate(96,32)"/>
</svg>
